<?xml version="1.0" encoding="utf-8"?>
<!-- Generator: Adobe Illustrator 16.0.0, SVG Export Plug-In . SVG Version: 6.00 Build 0)  -->
<!DOCTYPE svg PUBLIC "-//W3C//DTD SVG 1.1//EN" "http://www.w3.org/Graphics/SVG/1.1/DTD/svg11.dtd">
<svg version="1.1" id="Layer_1" xmlns="http://www.w3.org/2000/svg" xmlns:xlink="http://www.w3.org/1999/xlink" x="0px" y="0px"
	 width="121.156px" height="103.644px" viewBox="0 0 121.156 103.644" enable-background="new 0 0 121.156 103.644"
	 xml:space="preserve">
<g>
	<g>
		<defs>
			<polygon id="SVGID_1_" points="0.575,103.144 120.575,103.144 107.493,16.526 12.756,16.526 			"/>
		</defs>
		<use xlink:href="#SVGID_1_"  overflow="visible" fill="#FFFFFF"/>
		<clipPath id="SVGID_2_">
			<use xlink:href="#SVGID_1_"  overflow="visible"/>
		</clipPath>
		<path clip-path="url(#SVGID_2_)" d="M-5.635,62.657c15.582-10.111,18.995-18.5,28.013-16.245
			c10.608,2.652,8.454,24.533,18.399,25.693c9.945,1.159,7.383-13.838,19.798-15.416c9.297-1.182,11.149,10.966,17.829,8.951
			c11.814-3.562,6.962-17.75,18.067-17.57c10.276,0.166,1.989,16.243,14.255,15.746c6.098-0.247,20.388-11.271,20.388-13.426
			s0-41.937,0-41.937L-11.768,6.797L-5.635,62.657z"/>
		<use xlink:href="#SVGID_1_"  overflow="visible" fill="none" stroke="#000000" stroke-miterlimit="10"/>
	</g>
	<g>
		<ellipse cx="62.076" cy="7.586" rx="9.946" ry="7.585"/>
		<path fill="#FFFFFF" d="M67.103,1.629c0,0,5.256,2.185,3.107,6.757c-1.156,2.458-3.166,1.09-1.442-0.312
			C72.066,5.394,68.078,2.64,67.103,1.629z"/>
	</g>
</g>
</svg>
